ExternalForces																		
version=1																		
nRows=111																		
nColumns=19																		
inDegrees=yes																		
endheader																		
time	assist_force_vx	assist_force_vy	assist_force_vz	assist_force_px	assist_force_py	assist_force_pz	chair_force_vx	chair_force_vy	chair_force_vz	chair_force_px	chair_force_py	chair_force_pz	assist_torque_x	assist_torque_y	assist_torque_z	chair_torque_x	chair_torque_y	chair_torque_z
0	0	0	0	-0.03	0.32	0	-22.58154674	273.6747522	0	0	0	0	0	0	0	0	0	0
0.0048735	0.00015702	0.00002556	0	-0.03	0.32	0	-20.60623626	270.7954682	0	0	0	0	0	0	0	0	0	0
0.00578533	0.00022061	0.00003591	0	-0.03	0.32	0	-21.3191552	272.266649	0	0	0	0	0	0	0	0	0	0
0.00723802	0.00034365	0.00005593	0	-0.03	0.32	0	-21.14204134	272.368084	0	0	0	0	0	0	0	0	0	0
0.01342426	0.0011584	0.00018855	0	-0.03	0.32	0	-18.97190508	270.9495513	0	0	0	0	0	0	0	0	0	0
0.02458163	0.00374673	0.00060984	0	-0.03	0.32	0	-12.76446534	266.7880909	0	0	0	0	0	0	0	0	0	0
0.035739	0.00764467	0.00124429	0	-0.03	0.32	0	-5.99940226	262.3364218	0	0	0	0	0	0	0	0	0	0
0.05505732	0.01709177	0.00278194	0	-0.03	0.32	0	6.01731602	254.1995118	0	0	0	0	0	0	0	0	0	0
0.05814367	0.0188842	0.00307369	0	-0.03	0.32	0	8.22467043	252.7772661	0	0	0	0	0	0	0	0	0	0
0.06873684	0.02556743	0.00416149	0	-0.03	0.32	0	16.71155371	247.7473726	0	0	0	0	0	0	0	0	0	0
0.07013519	0.02650809	0.00431459	0	-0.03	0.32	0	16.91430925	247.0057646	0	0	0	0	0	0	0	0	0	0
0.07563257	0.03033076	0.00493679	0	-0.03	0.32	0	20.04651514	244.2712365	0	0	0	0	0	0	0	0	0	0
0.0849827	0.03726491	0.00606543	0	-0.03	0.32	0	29.36545638	239.9549572	0	0	0	0	0	0	0	0	0	0
0.08599354	0.0380455	0.00619248	0	-0.03	0.32	0	28.58748535	239.3521654	0	0	0	0	0	0	0	0	0	0
0.08771956	0.03939176	0.00641161	0	-0.03	0.32	0	28.84193657	238.4452853	0	0	0	0	0	0	0	0	0	0
0.09259014	0.04327958	0.00704441	0	-0.03	0.32	0	31.70552123	236.0527506	0	0	0	0	0	0	0	0	0	0
0.10040311	0.05609887	0.01137653	0	-0.03	0.32	0	37.02673783	232.2440885	0	0	0	0	0	0	0	0	0	0
0.10971424	0.61304313	0.29698227	0	-0.03	0.32	0	41.99236247	226.3941986	0	0	0	0	0	0	0	0	0	0
0.11902537	2.11853274	1.07379328	0	-0.03	0.32	0	48.43753236	219.5177219	0	0	0	0	0	0	0	0	0	0
0.12009948	2.34932177	1.19298366	0	-0.03	0.32	0	47.2453066	218.5264803	0	0	0	0	0	0	0	0	0	0
0.1222005	2.83351728	1.44309113	0	-0.03	0.32	0	47.12870371	216.7483004	0	0	0	0	0	0	0	0	0	0
0.12861277	4.57093668	2.34088162	0	-0.03	0.32	0	48.41844295	211.3215532	0	0	0	0	0	0	0	0	0	0
0.13521606	6.74892258	3.46676236	0	-0.03	0.32	0	50.95788186	205.6402075	0	0	0	0	0	0	0	0	0	0
0.13801622	7.78549198	4.00270639	0	-0.03	0.32	0	51.12697404	203.1027426	0	0	0	0	0	0	0	0	0	0
0.14817309	12.07453871	6.22073052	0	-0.03	0.32	0	49.45661529	193.4869438	0	0	0	0	0	0	0	0	0	0
0.14925263	12.57694853	6.4805784	0	-0.03	0.32	0	53.2555818	192.780238	0	0	0	0	0	0	0	0	0	0
0.15056418	13.19886625	6.80224359	0	-0.03	0.32	0	53.44878045	191.5490599	0	0	0	0	0	0	0	0	0	0
0.1571219	16.49272628	8.50599476	0	-0.03	0.32	0	54.40647162	185.3404042	0	0	0	0	0	0	0	0	0	0
0.16900474	23.19435396	11.97285606	0	-0.03	0.32	0	56.6397662	173.9349635	0	0	0	0	0	0	0	0	0	0
0.17073624	24.24459055	12.5162	0	-0.03	0.32	0	56.31819443	172.1954791	0	0	0	0	0	0	0	0	0	0
0.17939377	29.75683894	15.36811273	0	-0.03	0.32	0	53.31276547	163.2805538	0	0	0	0	0	0	0	0	0	0
0.1811437	30.92178496	15.97085353	0	-0.03	0.32	0	57.53292959	161.8731381	0	0	0	0	0	0	0	0	0	0
0.18324747	32.34395489	16.70669129	0	-0.03	0.32	0	57.2481592	159.7121598	0	0	0	0	0	0	0	0	0	0
0.19221727	38.66210256	19.97584568	0	-0.03	0.32	0	55.23286788	150.3159106	0	0	0	0	0	0	0	0	0	0
0.19320204	39.3798738	20.3472473	0	-0.03	0.32	0	57.36844572	149.4766705	0	0	0	0	0	0	0	0	0	0
0.19464158	40.4373879	20.89444797	0	-0.03	0.32	0	57.57393862	147.9942006	0	0	0	0	0	0	0	0	0	0
0.2018393	45.85733094	23.72089464	0	-0.03	0.32	0	58.1555515	140.3884595	0	0	0	0	0	0	0	0	0	0
0.20903702	51.33693971	26.93254937	0	-0.03	0.32	0	56.3275643	131.5284603	0	0	0	0	0	0	0	0	0	0
0.21700069	57.38792668	31.02606654	0	-0.03	0.32	0	53.63494073	120.8580275	0	0	0	0	0	0	0	0	0	0
0.22496436	63.42749379	35.64489294	0	-0.03	0.32	0	49.9427095	109.7289142	0	0	0	0	0	0	0	0	0	0
0.24036142	75.07526731	45.91779771	0	-0.03	0.32	0	41.59187852	87.59005409	0	0	0	0	0	0	0	0	0	0
0.2514615	83.45112504	54.30294324	0	-0.03	0.32	0	34.77526388	71.29449019	0	0	0	0	0	0	0	0	0	0
0.26256158	91.81125593	63.41151741	0	-0.03	0.32	0	27.14726026	54.76336938	0	0	0	0	0	0	0	0	0	0
0.27836871	103.6926104	77.48322062	0	-0.03	0.32	0	15.41661969	30.68531609	0	0	0	0	0	0	0	0	0	0
0.29452578	115.8118169	93.02483777	0	-0.03	0.32	0	2.75596723	5.3075573	0	0	0	0	0	0	0	0	0	0
0.30356181	122.4737631	102.0891785	0	-0.03	0.32	0	0	0	0	0	0	0	0	0	0	0	0	0
0.309439	126.1279145	107.6777223	0	-0.03	0.32	0	0	0	0	0	0	0	0	0	0	0	0	0
0.32674161	133.3300033	122.3461164	0	-0.03	0.32	0	0	0	0	0	0	0	0	0	0	0	0	0
0.34404422	135.8877178	134.6837955	0	-0.03	0.32	0	0	0	0	0	0	0	0	0	0	0	0	0
0.3602691	134.7248376	144.4658103	0	-0.03	0.32	0	0	0	0	0	0	0	0	0	0	0	0	0
0.37649397	130.6423251	152.782648	0	-0.03	0.32	0	0	0	0	0	0	0	0	0	0	0	0	0
0.38134933	128.919987	155.0202635	0	-0.03	0.32	0	0	0	0	0	0	0	0	0	0	0	0	0
0.38921629	125.6851315	158.4228604	0	-0.03	0.32	0	0	0	0	0	0	0	0	0	0	0	0	0
0.40368143	118.4806325	163.844146	0	-0.03	0.32	0	0	0	0	0	0	0	0	0	0	0	0	0
0.41814656	110.6204449	165.7263112	0	-0.03	0.32	0	0	0	0	0	0	0	0	0	0	0	0	0
0.4326117	102.5234595	163.4590415	0	-0.03	0.32	0	0	0	0	0	0	0	0	0	0	0	0	0
0.44707683	94.22156714	157.6011663	0	-0.03	0.32	0	0	0	0	0	0	0	0	0	0	0	0	0
0.48835059	69.63748264	125.1847337	0	-0.03	0.32	0	0	0	0	0	0	0	0	0	0	0	0	0
0.50233196	61.10686317	110.1335584	0	-0.03	0.32	0	0	0	0	0	0	0	0	0	0	0	0	0
0.51631334	53.25259342	95.76433702	0	-0.03	0.32	0	0	0	0	0	0	0	0	0	0	0	0	0
0.53029471	46.40691868	83.26985835	0	-0.03	0.32	0	0	0	0	0	0	0	0	0	0	0	0	0
0.56032708	34.5201389	61.66922622	0	-0.03	0.32	0	0	0	0	0	0	0	0	0	0	0	0	0
0.56657333	32.45599638	57.93523543	0	-0.03	0.32	0	0	0	0	0	0	0	0	0	0	0	0	0
0.57518423	29.80829376	53.15544777	0	-0.03	0.32	0	0	0	0	0	0	0	0	0	0	0	0	0
0.58894728	26.00957181	46.32095131	0	-0.03	0.32	0	0	0	0	0	0	0	0	0	0	0	0	0
0.60271034	22.68403456	40.36509622	0	-0.03	0.32	0	0	0	0	0	0	0	0	0	0	0	0	0
0.61647339	19.77973309	35.17511568	0	-0.03	0.32	0	0	0	0	0	0	0	0	0	0	0	0	0
0.62608135	17.97549348	31.95299136	0	-0.03	0.32	0	0	0	0	0	0	0	0	0	0	0	0	0
0.6356893	16.3356387	29.02613038	0	-0.03	0.32	0	0	0	0	0	0	0	0	0	0	0	0	0
0.64160873	15.40057028	27.35804619	0	-0.03	0.32	0	0	0	0	0	0	0	0	0	0	0	0	0
0.65176762	13.9185518	24.71575282	0	-0.03	0.32	0	0	0	0	0	0	0	0	0	0	0	0	0
0.6619265	12.57869328	22.32880313	0	-0.03	0.32	0	0	0	0	0	0	0	0	0	0	0	0	0
0.6746356	11.08183106	19.66478468	0	-0.03	0.32	0	0	0	0	0	0	0	0	0	0	0	0	0
0.68311972	10.18251243	18.06587811	0	-0.03	0.32	0	0	0	0	0	0	0	0	0	0	0	0	0
0.69160384	9.3556416	16.59710024	0	-0.03	0.32	0	0	0	0	0	0	0	0	0	0	0	0	0
0.70073677	8.53977608	15.14932558	0	-0.03	0.32	0	0	0	0	0	0	0	0	0	0	0	0	0
0.70900291	7.86259965	13.94830092	0	-0.03	0.32	0	0	0	0	0	0	0	0	0	0	0	0	0
0.71726906	7.23915757	12.84266813	0	-0.03	0.32	0	0	0	0	0	0	0	0	0	0	0	0	0
0.72614409	6.62475527	11.75316663	0	-0.03	0.32	0	0	0	0	0	0	0	0	0	0	0	0	0
0.73744155	5.91756043	10.49926711	0	-0.03	0.32	0	0	0	0	0	0	0	0	0	0	0	0	0
0.74873901	5.28592945	9.37951228	0	-0.03	0.32	0	0	0	0	0	0	0	0	0	0	0	0	0
0.77455336	4.08447544	7.25016824	0	-0.03	0.32	0	0	0	0	0	0	0	0	0	0	0	0	0
0.79678293	3.27144623	5.80988401	0	-0.03	0.32	0	0	0	0	0	0	0	0	0	0	0	0	0
0.80557429	2.99658951	5.32315046	0	-0.03	0.32	0	0	0	0	0	0	0	0	0	0	0	0	0
0.81436565	2.74482599	4.87741905	0	-0.03	0.32	0	0	0	0	0	0	0	0	0	0	0	0	0
0.83015123	2.34464994	4.16919659	0	-0.03	0.32	0	0	0	0	0	0	0	0	0	0	0	0	0
0.85333428	1.86017826	3.31238298	0	-0.03	0.32	0	0	0	0	0	0	0	0	0	0	0	0	0
0.86736542	1.61695294	2.88257477	0	-0.03	0.32	0	0	0	0	0	0	0	0	0	0	0	0	0
0.88139655	1.40546514	2.50911731	0	-0.03	0.32	0	0	0	0	0	0	0	0	0	0	0	0	0
0.89542769	1.22156003	2.1846336	0	-0.03	0.32	0	0	0	0	0	0	0	0	0	0	0	0	0
0.90522214	1.10763846	1.98369742	0	-0.03	0.32	0	0	0	0	0	0	0	0	0	0	0	0	0
0.9176781	0.9784974	1.75503786	0	-0.03	0.32	0	0	0	0	0	0	0	0	0	0	0	0	0
0.92796204	0.88382467	1.58659896	0	-0.03	0.32	0	0	0	0	0	0	0	0	0	0	0	0	0
0.93824597	0.7988313	1.43464268	0	-0.03	0.32	0	0	0	0	0	0	0	0	0	0	0	0	0
0.94967388	0.71459008	1.28316362	0	-0.03	0.32	0	0	0	0	0	0	0	0	0	0	0	0	0
0.96110179	0.63997069	1.14806921	0	-0.03	0.32	0	0	0	0	0	0	0	0	0	0	0	0	0
0.9725297	0.57393405	1.02759004	0	-0.03	0.32	0	0	0	0	0	0	0	0	0	0	0	0	0
0.9839576	0.51555329	0.92014782	0	-0.03	0.32	0	0	0	0	0	0	0	0	0	0	0	0	0
0.99538551	0.46400166	0.82433465	0	-0.03	0.32	0	0	0	0	0	0	0	0	0	0	0	0	0
1.00681342	0.41918592	0.73892626	0	-0.03	0.32	0	0	0	0	0	0	0	0	0	0	0	0	0
1.01824132	0.38330162	0.66294212	0	-0.03	0.32	0	0	0	0	0	0	0	0	0	0	0	0	0
1.03315546	0.34867874	0.57629858	0	-0.03	0.32	0	0	0	0	0	0	0	0	0	0	0	0	0
1.0480696	0.3261086	0.50201595	0	-0.03	0.32	0	0	0	0	0	0	0	0	0	0	0	0	0
1.0684502	0.31176388	0.4174264	0	-0.03	0.32	0	0	0	0	0	0	0	0	0	0	0	0	0
1.07707416	0.31064581	0.38671118	0	-0.03	0.32	0	0	0	0	0	0	0	0	0	0	0	0	0
1.08407924	0.3116573	0.36373051	0	-0.03	0.32	0	0	0	0	0	0	0	0	0	0	0	0	0
1.09108433	0.31426442	0.34238626	0	-0.03	0.32	0	0	0	0	0	0	0	0	0	0	0	0	0
1.099195	0.31913468	0.31957238	0	-0.03	0.32	0	0	0	0	0	0	0	0	0	0	0	0	0
1.10313414	0.33288233	0.41006778	0	-0.03	0.32	0	0	0	0	0	0	0	0	0	0	0	0	0
1.10707329	0.37778585	0.79055554	0	-0.03	0.32	0	0	0	0	0	0	0	0	0	0	0	0	0
1.11246646	0.48934532	1.77782875	0	-0.03	0.32	0	0	0	0	0	0	0	0	0	0	0	0	0
